<svg xmlns="http://www.w3.org/2000/svg" viewBox="0 0 180 108"><path fill="#FFF" d="M96.1 95.9h2v2h-2zm-12 0h2v2h-2zm-36 0h2v2h-2zm12 0h2v2h-2zm12 0h2v2h-2zm-36 0h2v2h-2zm-12 0h2v2h-2zm-12 0h2v2h-2zm48-38.4h2.3v6.4h-2.3v-6.4zm10.1 0h2.2l2.1 3.5h.1c-.1-.5-.2-1.1-.2-1.6v-1.9h2.2v6.4h-2.2l-2-3.3h-.1c.1.4.1.9.1 1.3V64h-2.2v-6.5zm13.3 4.1l.1.1c.4.3.9.6 1.4.6.2 0 .6-.1.6-.4 0-.3-.3-.3-.5-.4l-.5-.1c-.9-.2-1.7-.7-1.7-1.7 0-1.5 1.4-2.4 2.8-2.4.7 0 1.4.2 2 .6l-.6 1.6c-.4-.3-.8-.5-1.3-.5-.2 0-.5.1-.5.3 0 .2.3.3.5.3l.5.1c1 .2 1.7.7 1.7 1.8 0 1.5-1.4 2.3-2.8 2.3-.8 0-1.7-.2-2.5-.6l.8-1.6zm11.7-4.1h4.9v2.1l-1.3-.1v4.4h-2.3v-4.4l-1.3.1v-2.1zm12.9 0h2.3v6.4h-2.3v-6.4zm10.6 0h4.9v2.1l-1.3-.1v4.4H120v-4.4l-1.3.1v-2.1zm17.8 0v3.8c0 1.9-1.2 2.7-3 2.7s-2.9-.8-2.9-2.7v-3.8h2.3v3.6c0 .5 0 .9.6.9s.6-.4.6-.9v-3.6h2.4zm6.2 0h4.9v2.1l-1.3-.1v4.4H144v-4.4l-1.3.1v-2.1zm12.4 0h4.3v1.7h-2v.6h1.8v1.7h-1.8v.6h2v1.7H155v-6.3z"/><path fill="#00AEEF" d="M62.5 30.6V42c0 5.6-3.5 8.2-8.9 8.2s-8.9-2.6-8.9-8.2V30.6h7v10.8c0 1.5.1 2.8 1.9 2.8 1.9 0 1.9-1.3 1.9-2.8V30.6h7zm7.3 0h8.5c4.4 0 8 1.8 8 6.7 0 2.9-1.1 4.2-3.7 5v.2c.4.3.8.6 1.2 1.2L88 50h-8.1l-3.1-6.2h-.1V50h-6.9V30.6zm6.9 8.5h.5c1.2 0 2.3-.2 2.3-1.6 0-1.5-1.1-1.7-2.3-1.7h-.5v3.3zm16.6-8.5h8.2c3.7 0 7.6.9 7.6 5.4 0 1.7-.8 3.4-2.5 3.9v.1c2.1.7 3.4 2.3 3.4 4.6 0 4-3.7 5.3-7.1 5.3h-9.6V30.6zm7.2 7.4c1 0 2.2-.1 2.2-1.4 0-1.4-1.3-1.3-2.3-1.3h-.5V38h.6zm-.7 7.3h.8c1.2 0 2.8 0 2.8-1.6s-1.8-1.6-2.9-1.6h-.7v3.2zm21.6 4.6H114l6.7-19.3h7.8l6.9 19.3H128l-.6-2.4H122l-.6 2.4zm4.7-7l-.8-3.4c-.2-.8-.3-1.7-.5-2.5h-.3l-1.3 5.9h2.9zM140 30.6h6.7l6.3 10.7h.2c-.3-1.6-.6-3.3-.6-4.9v-5.8h6.7v19.3h-6.7l-6.2-10.2h-.2c.2 1.3.4 2.6.4 3.9v6.3H140V30.6z"/><g fill="#FFF"><path d="M84.1 23.9h2v2h-2zm12 0h2v2h-2zm-48 0h2v2h-2zm12 0h2v2h-2zm12 0h2v2h-2zm-36 0h2v2h-2zm48 48h2v2h-2zm12 0h2v2h-2zm-48 0h2v2h-2zm12 0h2v2h-2zm12 0h2v2h-2zm-36 0h2v2h-2zm0-12h2v2h-2zm0-12h2v2h-2zm0-12h2v2h-2z"/><path d="M72.1 23.9h2v2h-2zm12 0h2v2h-2zm12 0h2v2h-2zm-60 0h2v2h-2zm12 0h2v2h-2zm12 0h2v2h-2zm-36 0h2v2h-2zm0 48h2v2h-2zm0-12h2v2h-2zm0-12h2v2h-2zm0-12h2v2h-2z"/><path d="M60.1 23.9h2v2h-2zm12 0h2v2h-2zm12 0h2v2h-2zm12 0h2v2h-2zm-72 0h2v2h-2zm12 0h2v2h-2zm12 0h2v2h-2zm36 60h2v2h-2zm12 0h2v2h-2zm-48 0h2v2h-2zm12 0h2v2h-2zm12 0h2v2h-2zm-36 0h2v2h-2zm-12 0h2v2h-2zm-12-60h2v2h-2zm0 48h2v2h-2zm0 12h2v2h-2zm0-24h2v2h-2zm0-12h2v2h-2zm0-12h2v2h-2zm36 24h2v2h-2zm36-48h2v2h-2zm12 0h2v2h-2zm-48 0h2v2h-2zm12 0h2v2h-2zm12 0h2v2h-2zm-36 0h2v2h-2zm-12 0h2v2h-2zm-12 0h2v2h-2z"/></g></svg>